<svg width="138" height="226" viewBox="0 0 138 226" fill="none" xmlns="http://www.w3.org/2000/svg">
<rect width="138" height="226" fill="#E5E5E5"/>
<g clip-path="url(#clip0)">
<rect width="1440" height="3267" transform="translate(-173 -429)" fill="white"/>
<path d="M-172 -349H1268V226H-172V-349Z" fill="#2F70FE"/>
<path d="M93.045 184.925C73.3297 187.011 -62.6719 198.389 -79.6158 203.61C-96.5597 208.831 5.04532 206.795 18.0522 206.058C31.059 205.322 41.2018 208.222 26.3336 212.047C11.4655 215.873 84.7638 213.277 125.225 210.216C165.686 207.155 126.901 203.722 150.693 201.203C174.514 198.658 257.523 192.131 237.582 188.982C217.641 185.832 266.206 181.638 254.786 179.306C243.397 176.971 128.305 181.168 93.045 184.925Z" fill="#00FF85" fill-opacity="0.08"/>
<g style="mix-blend-mode:luminosity" clip-path="url(#clip1)">
<path d="M25.0204 206.726C25.0204 206.726 21.0674 218.317 21.5324 218.85C21.9975 219.427 25.9506 219.605 26.2994 219.605C26.6094 219.605 34.8644 219.605 34.8644 219.605C34.8644 219.605 38.0424 211.167 37.7711 210.901C37.4998 210.678 30.64 205.705 30.64 205.705L25.0204 206.726Z" fill="#1631A4"/>
<path d="M33.4304 210.856C33.4304 210.856 27.1908 211.833 21.8037 207.925C21.8037 207.925 29.9424 154.145 30.3687 151.17C30.795 148.194 29.9424 110.446 29.9424 110.446L42.383 106.094C42.383 106.094 45.0572 164.093 44.9021 163.56C44.7859 163.072 33.4304 210.856 33.4304 210.856Z" fill="#1631A4"/>
<path d="M7.46407 137.847C7.42532 137.669 5.41002 120.039 18.897 117.374C22.7338 116.619 26.0281 117.374 28.7797 119.595C33.8568 123.68 35.0194 131.319 35.0582 131.674L32.7716 132.118C32.6941 131.541 30.485 117.774 19.2458 119.994C7.9679 122.215 9.63439 136.87 9.71191 137.492L7.46407 137.847Z" fill="#01008A"/>
<path d="M46.6849 13.2785C46.6849 13.2785 45.6385 21.7607 43.4682 26.8678C41.2979 31.9749 40.2127 31.4864 39.6702 31.4864C39.1276 31.4864 28.6248 24.5141 28.6248 24.5141L25.8344 13.5894L33.9731 7.2832L40.7941 9.05958L46.6849 13.2785Z" fill="white"/>
<path d="M38.4299 30.8203C38.4299 30.8203 35.9883 30.9535 35.2907 35.6165C34.6319 40.2795 34.6319 40.2795 34.6319 40.2795L25.098 36.8156L29.7099 23.626L38.4299 30.8203Z" fill="white"/>
<path d="M32.7716 17.8084C32.7716 17.8084 31.8027 13.8559 29.5549 15.1882C27.3071 16.5205 29.9812 22.3826 31.5315 21.894L29.2449 24.9583L28.276 27.7117C28.276 27.7117 21.1062 21.0059 21.765 13.7227C22.4239 6.48395 26.2219 6.61717 26.2219 6.61717C26.2219 6.61717 25.408 1.86536 30.6788 0.222204C35.9496 -1.42095 50.7543 7.683 54.4749 5.3293C54.4749 5.3293 49.9792 20.0733 43.1969 15.3214C36.4147 10.5696 32.7716 17.8084 32.7716 17.8084Z" fill="#231F20"/>
<path d="M25.098 36.8157L25.408 32.8188L37.0735 36.8157L37.7323 42.8998L25.098 36.8157Z" fill="#E5E5E6"/>
<path d="M57.5753 81.4027C57.5753 81.4027 61.5672 80.1149 62.9624 79.2711C64.3576 78.3829 65.4815 77.3171 66.1403 77.8056C66.7992 78.2941 64.2025 80.781 64.0088 81.003C63.815 81.2251 69.4733 81.2695 70.2484 81.4027C71.0236 81.5804 73.5427 82.2909 73.5427 82.8238C73.5427 83.3568 70.4035 89.7517 69.6671 90.1958C68.892 90.6399 61.0633 90.4179 60.5207 89.9294C59.9782 89.4853 55.715 87.9754 55.715 87.9754C55.715 87.9754 57.3428 81.4916 57.5753 81.4027Z" fill="white"/>
<path d="M58.2729 80.7809C58.2729 80.7809 46.8012 77.7166 46.1424 74.1639C45.561 71.0108 42.3831 77.2725 42.3831 77.2725L43.1194 85.7992C43.1194 85.7992 49.4366 89.2631 57.8079 89.2631L59.3193 86.0212C59.3193 86.0212 60.0557 81.3582 58.2729 80.7809Z" fill="#CBCBCB"/>
<path d="M43.2357 213.077C43.2357 213.077 45.0572 217.784 47.8088 220.271C50.5605 222.758 52.4983 221.382 53.971 225.201C53.971 225.201 32.5778 225.423 31.919 225.201C31.2214 224.979 35.6395 213.921 36.4534 213.299C37.2673 212.766 43.2357 213.077 43.2357 213.077Z" fill="#1631A4"/>
<path d="M31.8415 212.988C31.8415 212.988 38.6625 216.452 44.9409 215.475C44.9409 215.475 54.8624 153.568 54.6686 151.259C54.4748 148.95 46.4136 89.2632 46.4136 89.2632L24.7104 95.1697C24.7104 95.1697 27.5008 118.085 29.3223 118.44C31.1438 118.796 32.1903 120.128 32.1903 120.128C32.1903 120.128 39.4376 154.812 39.1663 157.876C38.895 160.94 31.8415 212.988 31.8415 212.988Z" fill="#01008A"/>
<path d="M48.3127 89.4407C46.995 91.8388 35.9496 94.5922 29.3999 95.3028C26.9583 95.5692 25.1755 95.5692 24.7104 95.1251C22.9664 93.5708 23.354 88.6413 23.0827 87.7532C22.8114 86.865 23.0827 87.087 23.2765 86.4209C23.4702 85.7547 23.664 84.4224 23.0827 83.5787C22.7726 83.1346 22.4626 72.7427 22.23 62.4397C21.9975 52.4032 21.8812 42.4554 21.92 41.7893C22.3076 37.8368 25.098 36.8154 25.098 36.8154C25.098 36.8154 35.1745 38.9027 37.7324 42.8995C50.2505 62.3953 50.1342 86.1544 48.3127 89.4407Z" fill="#6DED02"/>
<path d="M14.0526 111.423C14.0526 111.423 13.2774 123.281 14.0526 124.125C14.8277 124.968 15.9904 123.814 16.843 124.125C17.6956 124.435 18.6257 124.391 19.0133 123.947C19.4009 123.547 19.6721 123.148 20.6023 123.192C21.5324 123.236 22.3851 123.503 22.6951 122.926C23.0051 122.348 23.3927 121.549 24.0903 121.416C24.8267 121.238 25.4468 121.238 25.4855 120.35C25.5243 119.462 23.8578 115.243 23.8578 115.243L23.974 117.641C23.974 117.641 25.3305 117.463 25.7568 116.175C26.1444 114.887 20.0985 108.048 20.0985 108.048L14.0526 111.423Z" fill="white"/>
<path d="M13.9363 112.933C13.9363 112.933 19.6721 109.647 21.3774 109.647C21.3774 109.647 21.6099 106.45 20.2535 106.094L12.7736 109.514C12.7736 109.514 12.7736 112.045 13.9363 112.933Z" fill="#FFD648"/>
<path d="M32.8879 57.1109C29.7099 63.9055 23.9741 77.4504 26.1831 80.0706C28.3922 82.6907 31.764 81.4917 29.3611 82.7795C26.9582 84.0674 24.7492 84.6892 26.5707 85.7106C28.3922 86.6876 29.8262 86.1547 28.0047 88.1531C26.3382 89.9739 26.8032 94.3704 29.4386 95.3474C26.997 95.6139 25.2142 95.6139 24.7492 95.1698C23.0052 93.6155 23.3927 88.686 23.1214 87.7978C22.8501 86.9096 23.1214 87.1317 23.3152 86.4655C23.509 85.7994 23.7028 84.4671 23.1214 83.6233C22.8114 83.1792 22.5013 72.7874 22.2688 62.4844L33.818 45.4312C33.818 45.4312 36.0271 50.2718 32.8879 57.1109Z" fill="#09D191"/>
<path d="M33.3529 52.2701C32.3065 55.2899 30.9501 58.3986 29.5549 61.4184C29.5549 61.4184 29.5549 61.4184 29.5161 61.4628C25.6018 69.8118 21.1836 77.7167 21.1061 82.5573C20.9898 89.2188 21.1836 104.762 20.2535 106.05C19.3233 107.338 12.7736 109.47 12.7736 109.47C12.7736 109.47 7.6191 78.2052 8.12292 75.8515C8.58799 73.4978 18.742 47.5182 21.9587 41.7894C25.1755 36.105 37.306 40.8568 33.3529 52.2701Z" fill="white"/>
<path d="M41.2591 159.164L8.54924 166.491C6.96025 166.847 5.41002 165.648 5.09998 163.871L0.953111 139.979C0.643065 138.114 1.68947 136.337 3.31721 136.026L37.1122 129.01C38.74 128.654 40.2902 129.942 40.5227 131.808L43.5844 155.345C43.817 157.121 42.8093 158.808 41.2591 159.164Z" fill="white"/>
<path d="M40.5227 131.808L39.7089 145.219L6.61145 152.591L0.953111 139.979C0.643065 138.114 1.68947 136.337 3.31721 136.026L37.1122 129.01C38.74 128.654 40.2902 129.942 40.5227 131.808Z" fill="#E5E5E6"/>
<path d="M8.58801 149.616L11.1846 148.95L12.7736 157.299L10.0995 157.876L8.58801 149.616Z" fill="#1631A4"/>
<path d="M33.9343 143.931L36.5309 143.265L38.1199 151.614L35.407 152.191L33.9343 143.931Z" fill="#1631A4"/>
<path d="M59.4743 80.7808C59.4743 80.7808 60.7532 84.2891 59.0867 89.263H57.8466C57.8466 89.263 59.7456 83.7562 58.3116 80.7808H59.4743Z" fill="#FFD648"/>
<path d="M29.5549 61.4629C25.6405 69.8119 21.2224 77.7168 21.1449 82.5574C21.0286 89.2188 21.2224 104.762 20.2923 106.05C20.2923 106.05 18.587 83.7121 17.1143 81.9801C15.6416 80.2925 15.2928 79.2267 18.0057 78.3829C20.6411 77.628 28.9735 62.4843 29.5549 61.4629Z" fill="#E5E5E6"/>
<path d="M108.5 204.373C108.5 204.373 108.423 209.036 102.648 212.944C96.8737 216.896 95.6335 217.118 95.4397 219.649L118.344 218.406L124.623 212.633C124.623 212.633 123.964 206.859 123.654 206.637C123.344 206.415 111.097 204.905 111.097 204.905L108.5 204.373Z" fill="#1631A4"/>
<path d="M118.654 99.6551V209.524C118.654 209.524 115.205 210.057 111.485 209.524C109.353 209.213 107.144 208.503 105.477 207.171C105.477 207.171 102.803 156.322 102.997 153.79C103.191 151.259 109.314 98.9001 109.624 98.8113C109.934 98.6781 118.654 99.6551 118.654 99.6551Z" fill="#1631A4"/>
<path d="M118.654 169.689V209.524C118.654 209.524 115.205 210.057 111.485 209.524C113.577 209.48 114.197 207.748 114.197 207.748C114.197 207.748 108.229 159.919 107.531 157.076C106.873 154.234 111.368 111.557 111.368 111.557L118.654 169.689Z" fill="#002F7A"/>
<path d="M77.2451 85.1413L77.245 85.1414L77.2554 85.1423C77.4277 85.1584 77.6104 85.1757 77.8008 85.1936C78.657 85.2744 79.6675 85.3697 80.5705 85.4426C81.1224 85.4872 81.6387 85.5238 82.0581 85.5436C82.4587 85.5626 82.8205 85.5693 83.0312 85.5391L83.0468 85.5369L83.0623 85.5337C83.6458 85.4121 84.2155 84.9578 84.4396 84.3741C84.5574 84.0673 84.5836 83.711 84.4451 83.357C84.3079 83.0062 84.0305 82.712 83.6408 82.482C83.147 82.1905 82.9856 81.759 82.9994 81.4893C83.0064 81.3531 83.0528 81.2934 83.0731 81.2761L83.0735 81.2758C83.0816 81.2688 83.1251 81.2315 83.2674 81.2664C83.7674 81.3892 85.1706 81.9269 86.4956 82.4554C87.1476 82.7156 87.7661 82.9675 88.2218 83.1544C88.4416 83.2446 88.6234 83.3197 88.7526 83.3731C88.7547 83.3801 88.7568 83.3873 88.759 83.3945C88.8057 83.5505 88.8708 83.7753 88.9442 84.0485C89.0914 84.5959 89.2701 85.3319 89.3998 86.094C89.5305 86.8619 89.6066 87.6292 89.5618 88.2487C89.5142 88.9074 89.3437 89.2193 89.1706 89.3257L89.1706 89.3256L89.1659 89.3286C89.1661 89.3285 89.1651 89.3291 89.1627 89.3305L89.1525 89.3362C89.1434 89.3411 89.1311 89.3474 89.1153 89.3551C89.0834 89.3706 89.0415 89.3896 88.9891 89.412C88.8841 89.4569 88.7464 89.5114 88.5782 89.5742C88.2424 89.6995 87.7984 89.8531 87.2794 90.0221C86.2418 90.36 84.9165 90.7555 83.5798 91.1053C82.2403 91.4559 80.9023 91.7573 79.8347 91.9109C79.2992 91.9879 78.8487 92.0252 78.5076 92.0173C78.3371 92.0134 78.2079 91.9984 78.1161 91.9774C78.0435 91.9608 78.0138 91.9448 78.0086 91.9421C77.9184 91.8595 77.7758 91.6324 77.6131 91.2045C77.4558 90.7909 77.3066 90.2651 77.1685 89.6809C76.8929 88.516 76.6728 87.1698 76.5183 86.13C76.4336 85.4678 76.8861 85.1001 77.2451 85.1413Z" fill="white" stroke="black"/>
<path d="M90.3239 82.0245C90.3239 82.0245 103.423 77.4503 103.85 76.7841C104.276 76.118 114.197 45.2534 114.43 44.7649C114.663 44.2764 116.678 46.0972 116.678 46.0972L111.058 83.1347L91.4866 89.2632L90.3239 82.0245Z" fill="#CBCBCB"/>
<path d="M88.076 82.5573C88.076 82.5573 89.355 84.8222 89.3937 89.7517L91.4866 89.2632C91.4866 89.2632 91.6028 83.0014 90.3239 82.0244L88.076 82.5573Z" fill="#1631A4"/>
<path d="M120.321 210.723C120.321 210.723 119.352 218.406 114.275 220.626C109.198 222.847 108.5 225.689 108.5 225.689C108.5 225.689 131.638 226.355 132.025 225.689C132.413 225.023 127.142 209.613 126.832 209.524C126.561 209.435 120.321 210.723 120.321 210.723Z" fill="#1631A4"/>
<path d="M128.77 211.611C128.77 211.611 121.174 212.81 115.825 211.611C115.825 211.611 108.423 159.475 108.617 154.634C108.81 149.793 111.407 111.512 111.407 111.512C111.407 111.512 109.663 110.402 109.857 106.805C110.051 103.163 111.485 95.5693 111.485 95.5693L132.878 104.274C132.878 104.274 131.056 122.215 127.413 122.304C127.413 122.304 120.708 153.302 120.747 154.945C120.786 156.632 128.77 211.611 128.77 211.611Z" fill="#01008A"/>
<path d="M137 66.7785L137 66.7799C136.807 67.7141 136.172 70.1402 135.384 73.15C134.835 75.2443 134.213 77.6213 133.614 79.9749C132.887 82.8321 132.197 85.6473 131.725 87.8533C131.489 88.9554 131.306 89.9136 131.2 90.6524C131.147 91.0212 131.112 91.3446 131.101 91.6085C131.09 91.8497 131.094 92.1135 131.166 92.3166C131.304 92.7057 131.572 93.1729 131.888 93.723C133.074 95.787 134.931 99.0186 133.07 103.678C132.881 103.65 132.628 103.613 132.318 103.567C131.594 103.459 130.56 103.304 129.319 103.115C126.837 102.736 123.527 102.22 120.214 101.671C116.899 101.122 113.587 100.54 111.099 100.03C109.853 99.7744 108.824 99.5389 108.107 99.3364C107.746 99.2344 107.481 99.1454 107.312 99.072C107.312 99.0719 107.311 99.0719 107.311 99.0718C107.314 99.0334 107.318 98.9908 107.322 98.9441C107.341 98.7279 107.37 98.4278 107.409 98.0518C107.486 97.3001 107.602 96.2483 107.757 94.9629L107.757 94.9629L107.757 94.9574C107.96 93.1003 108.251 90.7357 108.58 88.0656C108.627 87.6772 108.676 87.2824 108.725 86.8817L108.725 86.8811C109.655 79.2448 110.924 69.3896 112.11 61.1175C112.703 56.9809 113.276 53.2437 113.774 50.3788C114.023 48.946 114.253 47.7358 114.457 46.8048C114.666 45.8557 114.838 45.2442 114.962 44.9733L114.963 44.9706C115.795 43.1279 116.8 42.2464 117.558 41.8198C117.94 41.6047 118.268 41.5001 118.493 41.4493C118.605 41.4238 118.692 41.4118 118.747 41.4061C118.775 41.4033 118.794 41.4021 118.805 41.4016L118.814 41.4012L118.814 41.4012L118.814 41.4012L118.815 41.4012L118.809 40.9012C118.815 41.4012 118.815 41.4012 118.815 41.4012L118.816 41.4012L118.818 41.4012L118.826 41.4011L118.858 41.4007L118.985 41.3997C119.097 41.3988 119.261 41.3978 119.471 41.3971C119.891 41.3958 120.493 41.396 121.222 41.4019C122.68 41.4137 124.642 41.4483 126.664 41.5395C128.688 41.6308 130.76 41.7785 132.441 42.0146C133.283 42.1328 134.013 42.2715 134.586 42.4324C135.179 42.5988 135.524 42.769 135.673 42.9069C135.721 42.9546 135.801 43.0668 135.895 43.2831C135.987 43.494 136.079 43.7703 136.169 44.1108C136.348 44.7914 136.507 45.686 136.645 46.7368C136.921 48.8359 137.107 51.5085 137.213 54.2325C137.319 56.9547 137.346 59.718 137.305 61.9951C137.263 64.2917 137.154 66.0446 137 66.7785ZM107.173 99.0014C107.173 99.0014 107.173 99.0016 107.174 99.0022C107.174 99.0022 107.174 99.0021 107.174 99.0021C107.173 99.0016 107.173 99.0014 107.173 99.0014ZM114.508 44.7648L114.508 44.7649L114.508 44.7648Z" fill="white" stroke="black"/>
<path d="M130.087 37.3484L128.77 42.5443L122.801 44.1875L119.778 42.8996L119.042 42.5887C119.042 42.5887 119.003 39.0804 119.003 37.1708C119.003 35.2168 116.949 35.0835 116.949 35.0835L122.22 30.1985L122.491 29.9764L128.149 29.7544L130.087 37.3484Z" fill="white"/>
<path d="M120.05 38.3257C120.088 40.4573 119.933 41.9228 119.817 42.8999L119.081 42.589C119.081 42.589 119.042 39.0806 119.042 37.171C119.042 35.217 116.988 35.0838 116.988 35.0838L122.259 30.1987C123.034 31.2646 124.119 32.8633 124.119 32.8633C124.119 32.8633 120.011 34.24 120.05 38.3257Z" fill="#515BD4"/>
<path d="M119.74 42.189L119.119 42.5887L120.05 43.6989L119.74 42.189Z" fill="#E5E5E6"/>
<path d="M130.087 37.3486L119.74 42.1893L117.918 50.6715L130.824 41.2567L130.087 37.3486Z" fill="#CBCBCB"/>
<path d="M119.119 42.5885L119.081 39.3022L116.717 42.0112L119.119 42.5885Z" fill="#E5E5E5"/>
<path d="M80.0031 88.7194L80.0148 88.6942L80.0234 88.6687L80.0235 88.6685L80.0235 88.6685L80.0235 88.6682L80.0236 88.6679L80.0248 88.6647L80.0319 88.6449C80.0386 88.6264 80.0494 88.5977 80.0642 88.5603C80.0939 88.4855 80.1397 88.3768 80.2022 88.2467C80.328 87.9847 80.5166 87.6459 80.7702 87.3254C81.2816 86.6794 81.983 86.1871 82.9397 86.3785C83.9063 86.5719 85.0766 86.9678 86.1982 87.3473C86.4471 87.4315 86.6936 87.5149 86.935 87.5951C87.5856 87.8113 88.2039 88.0055 88.7041 88.1132C88.9533 88.1668 89.1952 88.204 89.4089 88.2061C89.6024 88.2079 89.8742 88.1835 90.0907 88.013C90.1929 87.9325 90.2968 87.8093 90.3376 87.6361C90.3782 87.4636 90.34 87.3102 90.289 87.1997C90.1993 87.0052 90.0296 86.8553 89.9041 86.7556C89.6844 86.5809 89.3674 86.3867 89.0619 86.1994C88.9929 86.1571 88.9244 86.1152 88.8578 86.0739C88.4699 85.8334 88.1152 85.5994 87.8743 85.3712C87.7562 85.2593 87.6881 85.1696 87.6545 85.1038C87.7522 85.0859 87.9054 85.0785 88.1246 85.0936C88.6408 85.1293 89.3463 85.2751 90.1346 85.4641C90.4707 85.5446 90.8296 85.6351 91.1889 85.7257C91.64 85.8394 92.0917 85.9532 92.4993 86.0478C93.2324 86.2179 93.945 86.3567 94.445 86.3437C94.9659 86.3301 95.5477 86.2906 96.0935 86.2536C96.4392 86.2301 96.7705 86.2076 97.0628 86.1934C97.4562 86.1741 97.7874 86.1686 98.0369 86.1864C98.1228 86.1926 98.1916 86.201 98.2452 86.2106C98.2495 86.2472 98.2536 86.2903 98.2574 86.3405C98.2749 86.5706 98.2811 86.8937 98.2775 87.2867C98.2704 88.0697 98.2249 89.0871 98.1669 90.1008C98.109 91.1129 98.0389 92.1146 97.9834 92.8638C97.9556 93.2382 97.9314 93.5493 97.9142 93.7667L97.9102 93.817L97.8493 93.845C97.6412 93.9408 97.3426 94.0777 96.9809 94.2421C96.2574 94.5711 95.2825 95.01 94.2754 95.45C93.2674 95.8904 92.2315 96.3301 91.3847 96.6618C90.9609 96.8278 90.5899 96.9646 90.2962 97.0605C89.9811 97.1634 89.8119 97.1994 89.7601 97.2016H89.7601C89.7598 97.2016 89.7558 97.2018 89.7472 97.2014C89.7384 97.2011 89.7264 97.2003 89.7108 97.1988C89.6794 97.1957 89.6387 97.1902 89.5878 97.1815C89.4857 97.1642 89.3555 97.1363 89.1986 97.0977C88.885 97.0206 88.4851 96.9059 88.026 96.763C87.1088 96.4776 85.9764 96.0865 84.8676 95.6777C83.7584 95.2688 82.68 94.8448 81.8702 94.4944C81.464 94.3187 81.1336 94.165 80.903 94.0434C80.8043 93.9913 80.7318 93.9493 80.6826 93.9175C80.6693 93.8699 80.6535 93.8082 80.6355 93.7326C80.5973 93.5723 80.5522 93.3615 80.5036 93.1144C80.4065 92.6209 80.2976 91.9945 80.2043 91.361C80.1107 90.726 80.0341 90.0924 79.9996 89.5815C79.9823 89.3253 79.9763 89.1095 79.9824 88.9442C79.9874 88.81 79.9997 88.7444 80.0036 88.7238C80.0052 88.7155 80.0053 88.7145 80.0031 88.7194Z" fill="white" stroke="black"/>
<path d="M125.94 91.1727C123.77 90.5953 112.337 93.5264 107.26 94.903C107.493 92.7714 107.842 89.9736 108.229 86.8205L129.661 62.04L136.598 59.2866C136.598 59.2866 129.661 82.0687 127.336 84.0227C125.049 85.9767 125.979 87.9752 127.336 88.1972C128.653 88.4637 128.77 91.9276 125.94 91.1727Z" fill="#E5E5E5"/>
<path d="M102.268 93.0699L102.406 84.9235L102.664 84.8057C103.01 84.6469 103.504 84.4197 104.098 84.1458C105.286 83.598 106.873 82.8634 108.466 82.1161C110.058 81.3691 111.659 80.6083 112.875 80.0087C113.482 79.7092 113.998 79.4478 114.37 79.2473C114.555 79.1476 114.712 79.0593 114.828 78.9868C114.886 78.951 114.942 78.9138 114.99 78.877C115.014 78.8588 115.043 78.8351 115.072 78.8069C115.093 78.7858 115.149 78.73 115.19 78.6452C115.211 78.6021 115.235 78.5345 115.251 78.4883L115.251 78.488C115.273 78.4266 115.302 78.3437 115.337 78.2416C115.407 78.0371 115.503 77.7495 115.623 77.3908C115.862 76.6731 116.194 75.666 116.592 74.4583C116.778 73.8936 116.978 73.285 117.19 72.6414C117.885 70.5314 118.703 68.0455 119.546 65.5001C121.749 58.8421 124.105 51.8177 124.852 50.0191C125.545 48.3496 127.026 47.1102 128.67 46.4315C130.326 45.7474 132.043 45.6743 133.172 46.1956C133.684 46.4323 134.232 47.0003 134.743 47.8837C135.247 48.7547 135.684 49.8779 136.002 51.1379C136.641 53.6637 136.786 56.6608 136.115 59.1569C135.782 60.3884 134.745 62.6912 133.338 65.5058C131.938 68.3043 130.195 71.5634 128.477 74.6831C126.759 77.8022 125.068 80.7786 123.772 83.0105C123.125 84.1267 122.577 85.0554 122.174 85.7221C121.973 86.0558 121.809 86.3218 121.688 86.5121C121.628 86.6075 121.58 86.6812 121.544 86.7338C121.532 86.751 121.523 86.764 121.516 86.7736C121.514 86.7751 121.511 86.7768 121.508 86.7785C121.469 86.8006 121.41 86.8305 121.327 86.8686C121.163 86.9444 120.931 87.0399 120.638 87.1532C120.052 87.3791 119.245 87.6656 118.289 87.9918C116.378 88.6436 113.888 89.4472 111.416 90.2296C108.945 91.0118 106.493 91.7719 104.66 92.3365C103.743 92.6188 102.981 92.8522 102.448 93.015C102.385 93.0343 102.325 93.0526 102.268 93.0699Z" fill="white" stroke="black"/>
<path d="M98.0363 85.7103C98.0363 85.7103 98.4626 89.7072 97.5325 94.5478L101.951 93.6596C101.951 93.6596 103.733 87.7976 101.912 84.6001L98.0363 85.7103Z" fill="#1631A4"/>
<path d="M76.9144 64.3938C76.8757 64.1717 76.8369 63.9941 76.7982 63.8608C76.8369 64.0385 76.8757 64.1717 76.9144 64.3938Z" fill="#F9A826"/>
<path d="M113.5 17.0532C113.5 17.0532 113.345 31.4863 113.5 33.3959C113.655 35.3056 114.779 35.6164 114.973 35.6608C115.205 35.7052 128.576 31.4419 128.576 31.4419L132.568 23.6259L126.832 13.6781L116.988 10.7915C117.027 10.7915 113.5 14.4775 113.5 17.0532Z" fill="white"/>
<path d="M114.391 15.0107C114.391 15.0107 116.019 13.5452 116.717 15.0107C117.414 16.4762 117.84 20.1622 121.6 20.251C125.359 20.3398 125.32 23.937 125.32 23.937C125.32 23.937 122.801 9.28185 122.53 9.0598C122.297 8.83775 114.197 7.68311 114.197 7.68311L114.391 15.0107Z" fill="#CBCBCB"/>
<path d="M125.282 23.9367C125.282 23.9367 126.793 21.2721 128.305 22.4267C129.816 23.5814 127.878 28.8661 124.894 29.7099C124.894 29.7099 125.902 35.4831 126.095 35.3943C126.289 35.3055 131.134 33.6179 131.134 33.6179C131.134 33.6179 137.8 25.1357 136.404 17.9858C135.009 10.8359 120.708 2.75333 117.492 3.28624C114.275 3.81916 113.694 7.94924 113.694 7.94924C113.694 7.94924 110.903 7.86042 110.438 9.41476C109.973 11.0135 108.307 19.4957 113.5 21.1833C113.5 21.1833 113.422 15.9874 114.391 14.9215C114.391 14.9215 115.166 12.8787 116.174 13.3672C117.182 13.8557 117.22 20.0286 121.6 20.1619C125.979 20.3839 125.282 23.9367 125.282 23.9367Z" fill="#231F20"/>
<path d="M127.994 23.9368C127.994 23.9368 126.328 22.6045 125.63 26.7346C125.592 26.7346 126.522 23.8924 127.994 23.9368Z" fill="#515BD4"/>
</g>
</g>
<defs>
<clipPath id="clip0">
<rect width="1440" height="3267" fill="white" transform="translate(-173 -429)"/>
</clipPath>
<clipPath id="clip1">
<rect width="136.963" height="226" fill="white" transform="translate(0.87561)"/>
</clipPath>
</defs>
</svg>
